<mxfile host="65bd71144e">
    <diagram id="NCHsup5IlfKkRa4EDAEe" name="PÃ¡gina-1">
        <mxGraphModel dx="1352" dy="667" grid="1" gridSize="10" guides="1" tooltips="1" connect="1" arrows="1" fold="1" page="1" pageScale="1" pageWidth="1169" pageHeight="1654" math="0" shadow="0">
            <root>
                <mxCell id="0"/>
                <mxCell id="1" parent="0"/>
                <mxCell id="18" style="edgeStyle=none;html=1;" edge="1" parent="1" source="2" target="3">
                    <mxGeometry relative="1" as="geometry"/>
                </mxCell>
                <mxCell id="2" value="&lt;font style=&quot;font-size: 14px&quot;&gt;&lt;b&gt;User access or create a Record page&lt;/b&gt;&lt;/font&gt;" style="rounded=1;whiteSpace=wrap;html=1;fillColor=#f5f5f5;strokeColor=#666666;fontColor=#333333;" vertex="1" parent="1">
                    <mxGeometry x="290" y="30" width="164" height="80" as="geometry"/>
                </mxCell>
                <mxCell id="19" style="edgeStyle=none;html=1;" edge="1" parent="1" source="3" target="4">
                    <mxGeometry relative="1" as="geometry"/>
                </mxCell>
                <mxCell id="3" value="ExternalModule PHP executed" style="shape=document;whiteSpace=wrap;html=1;boundedLbl=1;fontSize=14;fillColor=#dae8fc;strokeColor=#6c8ebf;" vertex="1" parent="1">
                    <mxGeometry x="312" y="150" width="120" height="80" as="geometry"/>
                </mxCell>
                <mxCell id="20" style="edgeStyle=none;html=1;" edge="1" parent="1" source="4" target="5">
                    <mxGeometry relative="1" as="geometry"/>
                </mxCell>
                <mxCell id="4" value="REDCap hook&lt;b&gt; &quot;redcap_data_entry_form()&quot;&lt;/b&gt; executed&amp;nbsp;" style="rounded=0;whiteSpace=wrap;html=1;fontSize=14;fillColor=#ffe6cc;strokeColor=#d79b00;" vertex="1" parent="1">
                    <mxGeometry x="252" y="250" width="240" height="100" as="geometry"/>
                </mxCell>
                <mxCell id="21" style="edgeStyle=none;html=1;" edge="1" parent="1" source="5" target="6">
                    <mxGeometry relative="1" as="geometry"/>
                </mxCell>
                <mxCell id="32" style="edgeStyle=none;html=1;" edge="1" parent="1" source="5" target="9">
                    <mxGeometry relative="1" as="geometry"/>
                </mxCell>
                <mxCell id="5" value="&lt;b&gt;&quot;$RecordFieldsNames&quot;&lt;/b&gt; variable created calling REDCap function &lt;b&gt;&quot;getFieldNames()&quot;&lt;/b&gt;&amp;nbsp;" style="rounded=0;whiteSpace=wrap;html=1;fontSize=14;fillColor=#ffe6cc;strokeColor=#d79b00;" vertex="1" parent="1">
                    <mxGeometry x="252" y="390" width="240" height="100" as="geometry"/>
                </mxCell>
                <mxCell id="30" style="edgeStyle=none;html=1;" edge="1" parent="1" source="6" target="9">
                    <mxGeometry relative="1" as="geometry"/>
                </mxCell>
                <mxCell id="6" value="&lt;b&gt;$RecordFIeldsValues&lt;/b&gt; variable created calling REDCap function &lt;b&gt;&quot;getData($RecordFieldsNames)&quot;&lt;/b&gt;" style="rounded=0;whiteSpace=wrap;html=1;fontSize=14;fillColor=#ffe6cc;strokeColor=#d79b00;" vertex="1" parent="1">
                    <mxGeometry x="252" y="530" width="240" height="100" as="geometry"/>
                </mxCell>
                <mxCell id="7" value="&lt;b&gt;Hiddem input fields&lt;/b&gt; with values of the three variables created for passing them to JavaScript&amp;nbsp;" style="rounded=0;whiteSpace=wrap;html=1;fontSize=14;fillColor=#ffe6cc;strokeColor=#d79b00;" vertex="1" parent="1">
                    <mxGeometry x="840" y="530" width="240" height="100" as="geometry"/>
                </mxCell>
                <mxCell id="23" value="" style="edgeStyle=none;html=1;" edge="1" parent="1" source="8" target="10">
                    <mxGeometry relative="1" as="geometry"/>
                </mxCell>
                <mxCell id="8" value="&lt;b&gt;&quot;Generate report&quot; &lt;/b&gt;button created" style="rounded=0;whiteSpace=wrap;html=1;fontSize=14;fillColor=#ffe6cc;strokeColor=#d79b00;" vertex="1" parent="1">
                    <mxGeometry x="252" y="810" width="240" height="100" as="geometry"/>
                </mxCell>
                <mxCell id="26" style="edgeStyle=none;html=1;" edge="1" parent="1" source="9" target="7">
                    <mxGeometry relative="1" as="geometry"/>
                </mxCell>
                <mxCell id="9" value="Variables converted to &lt;b&gt;JSON&lt;/b&gt; format" style="rounded=0;whiteSpace=wrap;html=1;fontSize=14;fillColor=#ffe6cc;strokeColor=#d79b00;" vertex="1" parent="1">
                    <mxGeometry x="550" y="530" width="240" height="100" as="geometry"/>
                </mxCell>
                <mxCell id="10" value="Is the button pressed?" style="rhombus;whiteSpace=wrap;html=1;fontSize=14;fillColor=#e1d5e7;strokeColor=#9673a6;" vertex="1" parent="1">
                    <mxGeometry x="310" y="960" width="126" height="115" as="geometry"/>
                </mxCell>
                <mxCell id="11" value="" style="edgeStyle=elbowEdgeStyle;elbow=horizontal;endArrow=classic;html=1;fontSize=14;exitX=0;exitY=0.5;exitDx=0;exitDy=0;fillColor=#ffe6cc;strokeColor=#d79b00;" edge="1" parent="1" source="10" target="15">
                    <mxGeometry width="50" height="50" relative="1" as="geometry">
                        <mxPoint x="303" y="1010" as="sourcePoint"/>
                        <mxPoint x="181" y="1090" as="targetPoint"/>
                        <Array as="points">
                            <mxPoint x="181" y="1020"/>
                            <mxPoint x="283" y="1080"/>
                            <mxPoint x="291" y="1092.5"/>
                            <mxPoint x="288" y="1092.5"/>
                            <mxPoint x="288" y="1082.5"/>
                            <mxPoint x="288" y="1082.5"/>
                            <mxPoint x="288" y="1112.5"/>
                            <mxPoint x="305" y="1072.5"/>
                            <mxPoint x="285" y="1082.5"/>
                            <mxPoint x="285" y="1070"/>
                        </Array>
                    </mxGeometry>
                </mxCell>
                <mxCell id="12" value="YES" style="text;html=1;align=center;verticalAlign=middle;whiteSpace=wrap;rounded=0;fontSize=14;direction=east;" vertex="1" parent="1">
                    <mxGeometry x="571" y="1030" width="60" height="30" as="geometry"/>
                </mxCell>
                <mxCell id="13" value="" style="edgeStyle=elbowEdgeStyle;elbow=horizontal;endArrow=classic;html=1;fontSize=14;exitX=1;exitY=0.5;exitDx=0;exitDy=0;fillColor=#ffe6cc;strokeColor=#d79b00;" edge="1" parent="1" source="10" target="17">
                    <mxGeometry width="50" height="50" relative="1" as="geometry">
                        <mxPoint x="463" y="1072.5" as="sourcePoint"/>
                        <mxPoint x="571" y="1090" as="targetPoint"/>
                        <Array as="points">
                            <mxPoint x="571" y="1020"/>
                            <mxPoint x="561" y="1020"/>
                            <mxPoint x="480" y="1010"/>
                            <mxPoint x="460" y="1020"/>
                            <mxPoint x="460" y="1007.5"/>
                        </Array>
                    </mxGeometry>
                </mxCell>
                <mxCell id="14" value="NO" style="text;html=1;align=center;verticalAlign=middle;whiteSpace=wrap;rounded=0;fontSize=14;direction=east;" vertex="1" parent="1">
                    <mxGeometry x="121" y="1030" width="60" height="30" as="geometry"/>
                </mxCell>
                <mxCell id="15" value="Keep waiting for the user to select a file and click the button" style="rounded=0;whiteSpace=wrap;html=1;fontSize=14;fillColor=#ffe6cc;strokeColor=#d79b00;" vertex="1" parent="1">
                    <mxGeometry x="70" y="1090" width="240" height="100" as="geometry"/>
                </mxCell>
                <mxCell id="17" value="File is posted and the page is reloaded" style="rounded=0;whiteSpace=wrap;html=1;fontSize=14;fillColor=#ffe6cc;strokeColor=#d79b00;" vertex="1" parent="1">
                    <mxGeometry x="451" y="1090" width="240" height="100" as="geometry"/>
                </mxCell>
                <mxCell id="28" style="edgeStyle=none;html=1;" edge="1" parent="1" source="27" target="9">
                    <mxGeometry relative="1" as="geometry"/>
                </mxCell>
                <mxCell id="27" value="&lt;b&gt;$Dictionary&lt;/b&gt;&amp;nbsp;variable created calling REDCap function &lt;b&gt;&quot;getDataDictionary(json)&quot;&lt;/b&gt;" style="rounded=0;whiteSpace=wrap;html=1;fontSize=14;fillColor=#ffe6cc;strokeColor=#d79b00;" vertex="1" parent="1">
                    <mxGeometry x="252" y="670" width="240" height="100" as="geometry"/>
                </mxCell>
            </root>
        </mxGraphModel>
    </diagram>
</mxfile>